<svg xmlns="http://www.w3.org/2000/svg" viewBox="0 0 52.52 56.3"><defs><style>.cls-1,.cls-2{stroke:#fff;stroke-miterlimit:10;}.cls-1{stroke-width:1.3px;}.cls-2{fill:none;stroke-width:3px;}</style></defs><title>Asset 2</title><g id="Layer_2" data-name="Layer 2"><g id="Layer_1-2" data-name="Layer 1"><path class="cls-1" d="M34.18.68A15.73,15.73,0,0,0,19,17.32a17.26,17.26,0,0,0,1.32,5.53A.83.83,0,0,1,20,23.91L13.4,27.72c-.29.19-.47.48-.36.74l.33,5.75a.87.87,0,0,1-.81.92l-4.1.25H8.27c-1.1.19-1.39.55-1.39,1.76l.33,5.75a.86.86,0,0,1-.81.92l-4.06.26H1.86a1,1,0,0,0-.92.29,1.4,1.4,0,0,0-.29,1v.47l.48,7.48a2.43,2.43,0,0,0,2.56,2.31l6.41-.37a2.43,2.43,0,0,0,1.58-.73L32,34.43a.9.9,0,0,1,.73-.26,17.57,17.57,0,0,0,3.41.22A16.79,16.79,0,0,0,51.84,16.55,16.67,16.67,0,0,0,34.18.68Zm-20,36a.76.76,0,0,0,.73-.92l-.33-6.45a.87.87,0,0,1,.41-.77l7-4.14a.76.76,0,0,0,.37-.55.82.82,0,0,0-.18-.66,11,11,0,0,1-1.84-6A14.22,14.22,0,0,1,34.11,2.18a15.23,15.23,0,0,1,16,14.26,14.93,14.93,0,0,1-14,16.27,21.5,21.5,0,0,1-3.95-.3,1,1,0,0,0-.74.3L10.51,53.41a.71.71,0,0,1-.48.18L3.62,54a.76.76,0,0,1-.84-.73L2.34,46.6a.86.86,0,0,1,.8-.92l4.95-.33a.76.76,0,0,0,.73-.92l-.4-6.56a.85.85,0,0,1,.8-.91l4.95-.33"/><circle class="cls-2" cx="37.99" cy="14.33" r="4"/></g></g></svg>