<svg xmlns="http://www.w3.org/2000/svg" viewBox="0 0 60.71 60.7"><defs><style>.cls-1{fill:none;stroke:#fff;stroke-linecap:round;stroke-linejoin:round;stroke-width:3.5px;}</style></defs><title>Asset 1</title><g id="Layer_2" data-name="Layer 2"><g id="Layer_1-2" data-name="Layer 1"><path class="cls-1" d="M52.88,31.8a3.83,3.83,0,0,1-3.67-1.94,7.13,7.13,0,0,0-3.47-2.71c-.67-.16-1.38.24-1.38,1.49V44.36H28c-1.25,0-1.65.71-1.49,1.38a7.2,7.2,0,0,0,2.71,3.47,3.83,3.83,0,0,1,1.94,3.67c0,3.36-3.77,6.07-8.42,6.07s-8.42-2.71-8.42-6.07a3.85,3.85,0,0,1,1.94-3.67A7.13,7.13,0,0,0,19,45.74c.16-.67-.24-1.38-1.48-1.38H1.75V28.65c0-1.26.71-1.66,1.38-1.5A7.19,7.19,0,0,1,6.6,29.86a3.84,3.84,0,0,0,3.67,1.95c3.36,0,6.08-3.78,6.08-8.43S13.63,15,10.27,15A3.85,3.85,0,0,0,6.6,16.9a7.16,7.16,0,0,1-3.47,2.71c-.67.16-1.38-.24-1.38-1.5V1.75H44.36V18.12c0,1.25.72,1.65,1.38,1.49a7.16,7.16,0,0,0,3.47-2.71A3.85,3.85,0,0,1,52.88,15C56.24,15,59,18.73,59,23.38S56.24,31.8,52.88,31.8Z"/></g></g></svg>