<svg xmlns="http://www.w3.org/2000/svg" viewBox="0 0 41 54"><defs><style>.cls-1{fill:none;stroke:#fff;stroke-linecap:round;stroke-linejoin:round;stroke-width:3px;}</style></defs><title>Asset 1</title><g id="Layer_2" data-name="Layer 2"><g id="Layer_1-2" data-name="Layer 1"><line class="cls-1" x1="1.5" y1="1.5" x2="39.5" y2="1.5"/><line class="cls-1" x1="1.5" y1="52.5" x2="39.5" y2="52.5"/><line class="cls-1" x1="11.5" y1="47.5" x2="29.5" y2="47.5"/><path class="cls-1" d="M6,52V43.87A11,11,0,0,1,10.06,36l2.88-2.08c2.23-1.6,4.06-4.5,4.06-6.44s-1.7-5-3.78-6.8l-3.44-3A12.48,12.48,0,0,1,6,9.37V2"/><path class="cls-1" d="M35,52V43.87A11,11,0,0,0,30.94,36l-2.88-2.08c-2.23-1.6-4.06-4.5-4.06-6.44s1.7-5,3.78-6.8l3.44-3A12.48,12.48,0,0,0,35,9.37V2" /></g></g></svg>